{
  "asset": {
    "generator": "Handwritten",
    "version": "2.0"
  },
  "buffers": [
    {
      "uri": "sphere_mesh.bin",
      "byteLength": 2496
    },
    {
      "uri": "plane_mesh.bin",
      "byteLength": 140
    }
  ],
  "bufferViews": [
    {
      "name": "Sphere Position",
      "buffer": 0,
      "byteOffset": 0,
      "byteLength": 756,
      "target": 34962
    },
    {
      "name": "Sphere Normal",
      "buffer": 0,
      "byteOffset": 756,
      "byteLength": 756,
      "target": 34962
    },
    {
      "name": "Sphere UV",
      "buffer": 0,
      "byteOffset": 1512,
      "byteLength": 504,
      "target": 34962
    },
    {
      "name": "Sphere Indices",
      "buffer": 0,
      "byteOffset": 2016,
      "byteLength": 480,
      "target": 34963
    },
    {
      "name": "Plane Position",
      "buffer": 1,
      "byteOffset": 0,
      "byteLength": 48,
      "target": 34962
    },
    {
      "name": "Plane Normal",
      "buffer": 1,
      "byteOffset": 48,
      "byteLength": 48,
      "target": 34962
    },
    {
      "name": "Plane UV",
      "buffer": 1,
      "byteOffset": 96,
      "byteLength": 32,
      "target": 34962
    },
    {
      "name": "Plane Indices",
      "buffer": 1,
      "byteOffset": 128,
      "byteLength": 12,
      "target": 34963
    }
  ],
  "accessors": [
    {
      "name": "Sphere Position",
      "bufferView": 0,
      "type": "VEC3",
      "componentType": 5126,
      "count": 63,
      "max": [
        0.9510578513145447,
        1,
        0.9999999403953552
      ],
      "min": [
        -0.9510578513145447,
        -1,
        -0.9999999403953552
      ]
    },
    {
      "name": "Sphere Normal",
      "bufferView": 1,
      "type": "VEC3",
      "componentType": 5126,
      "count": 63
    },
    {
      "name": "Sphere UV",
      "bufferView": 2,
      "type": "VEC2",
      "componentType": 5126,
      "count": 63
    },
    {
      "name": "Sphere Indices",
      "bufferView": 3,
      "type": "SCALAR",
      "componentType": 5123,
      "count": 240
    },
    {
      "name": "Plane Position",
      "bufferView": 4,
      "type": "VEC3",
      "componentType": 5126,
      "count": 4,
      "max":[
        0.9999999403953552,
        1,
        0
      ],
      "min":[
        -0.9999999403953552,
        -1,
        0
      ]
    },
    {
      "name": "Plane Normal",
      "bufferView": 5,
      "type": "VEC3",
      "componentType": 5126,
      "count": 4
    },
    {
      "name": "Plane UV",
      "bufferView": 6,
      "type": "VEC2",
      "componentType": 5126,
      "count": 4
    },
    {
      "name": "Plane Indices",
      "bufferView": 7,
      "type": "SCALAR",
      "componentType": 5123,
      "count": 6
    }
  ],
  "materials": [
    {
      "name": "Sphere Material Yellow",
      "pbrMetallicRoughness": {
        "baseColorFactor": [ 1, 1, 0.7, 1 ],
        "metallicFactor": 0,
        "roughnessFactor": 0.5
      },
      "alphaMode": "OPAQUE",
      "doubleSided": false
    },
    {
      "name": "Plane Material Pink",
      "pbrMetallicRoughness": {
        "baseColorFactor": [ 1, 0.7, 1, 1 ],
        "metallicFactor": 0,
        "roughnessFactor": 0.5
      },
      "alphaMode": "OPAQUE",
      "doubleSided": true
    }
  ],
  "meshes": [
    {
      "name": "Cube",
      "primitives": [
        {
          "mode": 4,
          "indices": 3,
          "attributes": {
            "POSITION": 0,
            "NORMAL": 1,
            "TEXCOORD_0": 2
          },
          "material": 0
        }
      ]
    },
    {
      "name": "Plane Pink",
      "primitives": [
        {
          "mode": 4,
          "indices": 7,
          "attributes": {
            "POSITION": 4,
            "NORMAL": 5,
            "TEXCOORD_0": 6
          },
          "material": 1
        }
      ]
    }
  ],
  "nodes": [
    {
      "name": "Spring A",
      "children": [
        1
      ],
      "translation": [
        0,
        2,
        0
      ],
      "rotation": [
        0,
        0,
        0,
        1
      ],
      "scale": [
        0.25,
        0.25,
        0.25
      ],
      "mesh": 0,
      "extras": {}
    },
    {
      "name": "Spring B",
      "children": [
        2
      ],
      "translation": [
        0,
        -2,
        0
      ],
      "rotation": [
        0,
        0,
        0,
        1
      ],
      "scale": [
        1,
        1,
        1
      ],
      "mesh": 0,
      "extras": {}
    },
    {
      "name": "Spring C",
      "children": [
        3
      ],
      "translation": [
        0,
        -2,
        0
      ],
      "rotation": [
        0,
        0,
        0,
        1
      ],
      "scale": [
        1,
        1,
        1
      ],
      "mesh": 0,
      "extras": {}
    },
    {
      "name": "Spring D",
      "children": [
        4
      ],
      "translation": [
        0,
        -2,
        0
      ],
      "rotation": [
        0,
        0,
        0,
        1
      ],
      "scale": [
        1,
        1,
        1
      ],
      "mesh": 0,
      "extras": {}
    },
    {
      "name": "Spring E",
      "translation": [
        0,
        -2,
        0
      ],
      "rotation": [
        0,
        0,
        0,
        1
      ],
      "scale": [
        1,
        1,
        1
      ],
      "mesh": 0,
      "extras": {}
    },
    {
      "name": "Collider",
      "translation": [
        -0.25,
        1,
        0
      ],
      "rotation": [
        0,
        0.70710678118,
        0,
        0.70710678118
      ],
      "scale": [
        1,
        1,
        1
      ],
      "mesh": 1,
      "extras": {}
    }
  ],
  "scene": 0,
  "scenes": [
    {
      "nodes": [
        0,
        5
      ]
    }
  ],
  "extensionsUsed": [
    "VRMC_springBone",
    "VRMC_springBone_extended_collider"
  ],
  "extensions": {
    "VRMC_springBone": {
      "specVersion": "1.0",
      "colliders": [
        {
          "node": 5,
          "shape": {
            "sphere": {
              "offset": [
                -10000.0,
                0.0,
                0.0
              ],
              "radius": 10000.0
            }
          },
          "extensions": {
            "VRMC_springBone_extended_collider": {
              "specVersion": "1.0",
              "shape": {
                "plane": {
                  "normal": [
                    0.0,
                    0.0,
                    1.0
                  ]
                }
              }
            }
          }
        }
      ],
      "colliderGroups": [
        {
          "colliders": [ 0 ]
        }
      ],
      "springs": [
        {
          "joints": [
            {
              "node": 0,
              "hitRadius": 0.25,
              "stiffness": 1.0,
              "gravityPower": 0.0,
              "gravityDir": [ 0.0, -1.0, 0.0 ],
              "dragForce": 0.4
            },
            {
              "node": 1,
              "hitRadius": 0.25,
              "stiffness": 1.0,
              "gravityPower": 0.0,
              "gravityDir": [ 0.0, -1.0, 0.0 ],
              "dragForce": 0.4
            },
            {
              "node": 2,
              "hitRadius": 0.25,
              "stiffness": 1.0,
              "gravityPower": 0.0,
              "gravityDir": [ 0.0, -1.0, 0.0 ],
              "dragForce": 0.4
            },
            {
              "node": 3,
              "hitRadius": 0.25,
              "stiffness": 1.0,
              "gravityPower": 0.0,
              "gravityDir": [ 0.0, -1.0, 0.0 ],
              "dragForce": 0.4
            },
            {
              "node": 4
            }
          ],
          "colliderGroups": [ 0 ]
        }
      ]
    }
  },
  "extras": {}
}
