{
  "asset": {
    "generator": "Handwritten",
    "version": "2.0"
  },
  "buffers": [
    {
      "uri": "cube_mesh.bin",
      "byteLength": 912
    },
    {
      "uri": "cube_mesh_morph_x.bin",
      "byteLength": 288
    },
    {
      "uri": "cube_mesh_morph_y.bin",
      "byteLength": 288
    }
  ],
  "bufferViews": [
    {
      "name": "Cube Position",
      "buffer": 0,
      "byteOffset": 0,
      "byteLength": 288,
      "target": 34962
    },
    {
      "name": "Cube Normal",
      "buffer": 0,
      "byteOffset": 288,
      "byteLength": 288,
      "target": 34962
    },
    {
      "name": "Cube UV",
      "buffer": 0,
      "byteOffset": 576,
      "byteLength": 192,
      "target": 34962
    },
    {
      "name": "Cube Indices",
      "buffer": 0,
      "byteOffset": 768,
      "byteLength": 144,
      "target": 34963
    },
    {
      "name": "Cube Position Morph X",
      "buffer": 1,
      "byteOffset": 0,
      "byteLength": 288,
      "target": 34962
    },
    {
      "name": "Cube Position Morph Y",
      "buffer": 2,
      "byteOffset": 0,
      "byteLength": 288,
      "target": 34962
    }
  ],
  "accessors": [
    {
      "name": "Cube Position",
      "bufferView": 0,
      "byteOffset": 0,
      "type": "VEC3",
      "componentType": 5126,
      "count": 24,
      "max": [
        0.5,
        0.5,
        0.5
      ],
      "min": [
        -0.5,
        -0.5,
        -0.5
      ],
      "normalized": false
    },
    {
      "name": "Cube Normal",
      "bufferView": 1,
      "byteOffset": 0,
      "type": "VEC3",
      "componentType": 5126,
      "count": 24,
      "normalized": false
    },
    {
      "name": "Cube UV",
      "bufferView": 2,
      "byteOffset": 0,
      "type": "VEC2",
      "componentType": 5126,
      "count": 24,
      "normalized": false
    },
    {
      "name": "Cube Indices",
      "bufferView": 3,
      "byteOffset": 0,
      "type": "SCALAR",
      "componentType": 5125,
      "count": 36,
      "normalized": false
    },
    {
      "name": "Cube Position Morph X",
      "bufferView": 4,
      "byteOffset": 0,
      "type": "VEC3",
      "componentType": 5126,
      "count": 24,
      "max": [
        0.5,
        0.0,
        0.0
      ],
      "min": [
        -0.5,
        -0.0,
        -0.0
      ],
      "normalized": false
    },
    {
      "name": "Cube Position Morph Y",
      "bufferView": 5,
      "byteOffset": 0,
      "type": "VEC3",
      "componentType": 5126,
      "count": 24,
      "max": [
        0.0,
        0.5,
        0.0
      ],
      "min": [
        -0.0,
        -0.5,
        -0.0
      ],
      "normalized": false
    }
  ],
  "images": [
    {
      "uri": "thumbnail.png"
    }
  ],
  "materials": [
    {
      "name": "Cube Material",
      "pbrMetallicRoughness": {
        "baseColorFactor": [ 1, 1, 1, 1 ],
        "metallicFactor": 0,
        "roughnessFactor": 0.5
      },
      "doubleSided": false
    },
    {
      "name": "Cube Material (Eyes)",
      "pbrMetallicRoughness": {
        "baseColorFactor": [ 0, 0, 0, 1 ],
        "metallicFactor": 0,
        "roughnessFactor": 0.5
      },
      "doubleSided": false
    },
    {
      "name": "Cube Material (Mouth)",
      "pbrMetallicRoughness": {
        "baseColorFactor": [ 1, 0, 0, 1 ],
        "metallicFactor": 0,
        "roughnessFactor": 0.5
      },
      "doubleSided": false
    }
  ],
  "meshes": [
    {
      "name": "Cube",
      "primitives": [
        {
          "mode": 4,
          "indices": 3,
          "attributes": {
            "POSITION": 0,
            "NORMAL": 1,
            "TEXCOORD_0": 2
          },
          "material": 0,
          "targets": [
            {
              "POSITION": 4
            },
            {
              "POSITION": 5
            }
          ]
        }
      ]
    },
    {
      "name": "Cube (Eyes)",
      "primitives": [
        {
          "mode": 4,
          "indices": 3,
          "attributes": {
            "POSITION": 0,
            "NORMAL": 1,
            "TEXCOORD_0": 2
          },
          "material": 1,
          "targets": [
            {
              "POSITION": 4
            },
            {
              "POSITION": 5
            }
          ]
        }
      ]
    },
    {
      "name": "Cube (Mouth)",
      "primitives": [
        {
          "mode": 4,
          "indices": 3,
          "attributes": {
            "POSITION": 0,
            "NORMAL": 1,
            "TEXCOORD_0": 2
          },
          "material": 2,
          "targets": [
            {
              "POSITION": 4
            },
            {
              "POSITION": 5
            }
          ]
        }
      ]
    }
  ],
  "nodes": [
    {
      "name": "Root",
      "children": [ 1 ],
      "translation": [ 0, 0, 0 ],
      "rotation": [ 0, 0, 0, 1 ],
      "scale": [ 1, 1, 1 ]
    },
    {
      "name": "Hips",
      "children": [ 2, 4, 7 ],
      "translation": [ 0, 0.6, 0 ],
      "rotation": [ 0, 0, 0, 1 ],
      "scale": [ 1, 1, 1 ],
      "mesh": 0
    },
    {
      "name": "Spine",
      "children": [ 3, 10, 13 ],
      "translation": [ 0, 0.4, 0 ],
      "rotation": [ 0, 0, 0, 1 ],
      "scale": [ 1, 1, 1 ],
      "mesh": 0
    },
    {
      "name": "Head",
      "children": [ 16, 17, 18, 19 ],
      "translation": [ 0, 0.4, 0 ],
      "rotation": [ 0, 0, 0, 1 ],
      "scale": [ 1, 1, 1 ]
    },
    {
      "name": "LeftUpperLeg",
      "children": [ 5 ],
      "translation": [ 0.2, 0, 0 ],
      "rotation": [ 0, 0, 0, 1 ],
      "scale": [ 1, 1, 1 ],
      "mesh": 0
    },
    {
      "name": "LeftLowerLeg",
      "children": [ 6 ],
      "translation": [ 0, -0.3, 0 ],
      "rotation": [ 0, 0, 0, 1 ],
      "scale": [ 1, 1, 1 ],
      "mesh": 0
    },
    {
      "name": "LeftFoot",
      "translation": [ 0, -0.3, 0 ],
      "rotation": [ 0, 0, 0, 1 ],
      "scale": [ 1, 1, 1 ],
      "mesh": 0
    },
    {
      "name": "RightUpperLeg",
      "children": [ 8 ],
      "translation": [ -0.2, 0, 0 ],
      "rotation": [ 0, 0, 0, 1 ],
      "scale": [ 1, 1, 1 ],
      "mesh": 0
    },
    {
      "name": "RightLowerLeg",
      "children": [ 9 ],
      "translation": [ 0, -0.3, 0 ],
      "rotation": [ 0, 0, 0, 1 ],
      "scale": [ 1, 1, 1 ],
      "mesh": 0
    },
    {
      "name": "RightFoot",
      "translation": [ 0, -0.3, 0 ],
      "rotation": [ 0, 0, 0, 1 ],
      "scale": [ 1, 1, 1 ],
      "mesh": 0
    },
    {
      "name": "LeftUpperArm",
      "children": [ 11 ],
      "translation": [ 0.2, 0.2, 0 ],
      "rotation": [ 0, 0, 0, 1 ],
      "scale": [ 1, 1, 1 ],
      "mesh": 0
    },
    {
      "name": "LeftLowerArm",
      "children": [ 12 ],
      "translation": [ 0.3, 0, 0 ],
      "rotation": [ 0, 0, 0, 1 ],
      "scale": [ 1, 1, 1 ],
      "mesh": 0
    },
    {
      "name": "LeftHand",
      "translation": [ 0.3, 0, 0 ],
      "rotation": [ 0, 0, 0, 1 ],
      "scale": [ 1, 1, 1 ],
      "mesh": 0
    },
    {
      "name": "RightUpperArm",
      "children": [ 14 ],
      "translation": [ -0.2, 0.2, 0 ],
      "rotation": [ 0, 0, 0, 1 ],
      "scale": [ 1, 1, 1 ],
      "mesh": 0
    },
    {
      "name": "RightLowerArm",
      "children": [ 15 ],
      "translation": [ -0.3, 0, 0 ],
      "rotation": [ 0, 0, 0, 1 ],
      "scale": [ 1, 1, 1 ],
      "mesh": 0
    },
    {
      "name": "RightHand",
      "translation": [ -0.3, 0, 0 ],
      "rotation": [ 0, 0, 0, 1 ],
      "scale": [ 1, 1, 1 ],
      "mesh": 0
    },
    {
      "name": "Face",
      "translation": [ 0, 0.2, 0 ],
      "rotation": [ 0, 0, 0, 1 ],
      "scale": [ 3, 3, 0.5 ],
      "mesh": 0
    },
    {
      "name": "LeftEye",
      "translation": [ 0.1, 0.25, 0.01 ],
      "rotation": [ 0, 0, 0, 1 ],
      "scale": [ 0.5, 0.5, 0.5 ],
      "mesh": 1
    },
    {
      "name": "RightEye",
      "translation": [ -0.1, 0.25, 0.01 ],
      "rotation": [ 0, 0, 0, 1 ],
      "scale": [ 0.5, 0.5, 0.5 ],
      "mesh": 1
    },
    {
      "name": "Mouth",
      "translation": [ 0, 0.1, 0.01 ],
      "rotation": [ 0, 0, 0, 1 ],
      "scale": [ 1.5, 0.125, 0.5 ],
      "mesh": 2
    }
  ],
  "scene": 0,
  "scenes": [
    {
      "nodes": [
        0
      ]
    }
  ],
  "extensionsUsed": [
    "VRMC_vrm-1.0_draft"
  ],
  "extensions": {
    "VRMC_vrm-1.0_draft": {
      "meta": {
        "name": "Cube",
        "version": "1.0.0",
        "authors": [ "FMS_Cat" ],
        "copyrightInformation": "pixiv Inc.",
        "contactInformation": "https://github.com/pixiv/three-vrm",
        "thumbnailImage": 0,
        "avatarPermission": "everyone",
        "allowExcessivelyViolentUsage": true,
        "allowExcessivelySexualUsage": true,
        "commercialUsage": "corporation",
        "allowPoliticalOrReligiousUsage": true,
        "creditNotation": "unnecessary",
        "allowRedistribution": true,
        "modification": "notInherited"
      },
      "humanoid": {
        "humanBones": {
          "hips": {
            "node": 1
          },
          "spine": {
            "node": 2
          },
          "head": {
            "node": 3
          },
          "leftUpperLeg": {
            "node": 4
          },
          "leftLowerLeg": {
            "node": 5
          },
          "leftFoot": {
            "node": 6
          },
          "rightUpperLeg": {
            "node": 7
          },
          "rightLowerLeg": {
            "node": 8
          },
          "rightFoot": {
            "node": 9
          },
          "leftUpperArm": {
            "node": 10
          },
          "leftLowerArm": {
            "node": 11
          },
          "leftHand": {
            "node": 12
          },
          "rightUpperArm": {
            "node": 13
          },
          "rightLowerArm": {
            "node": 14
          },
          "rightHand": {
            "node": 15
          }
        }
      },
      "expressions": [
        {
          "name": "Aa",
          "preset": "aa",
          "morphTargetBinds": [
            {
              "node": 19,
              "index": 1,
              "weight": 3
            }
          ]
        },
        {
          "name": "Blink",
          "preset": "blink",
          "morphTargetBinds": [
            {
              "node": 17,
              "index": 1,
              "weight": -0.75
            },
            {
              "node": 18,
              "index": 1,
              "weight": -0.75
            }
          ]
        },
        {
          "name": "BlinkLeft",
          "preset": "blinkLeft",
          "morphTargetBinds": [
            {
              "node": 17,
              "index": 1,
              "weight": -0.75
            }
          ]
        },
        {
          "name": "BlinkRight",
          "preset": "blinkRight",
          "morphTargetBinds": [
            {
              "node": 18,
              "index": 1,
              "weight": -0.75
            }
          ]
        }
      ]
    }
  },
  "extras": {}
}
