{
  "asset": {
    "generator": "UniGLTF-1.28",
    "version": "2.0"
  },
  "buffers": [
    {
      "uri": "cube_mesh.bin",
      "byteLength": 2736
    }
  ],
  "bufferViews": [
    {
      "buffer": 0,
      "byteOffset": 0,
      "byteLength": 288,
      "target": 34962
    },
    {
      "buffer": 0,
      "byteOffset": 288,
      "byteLength": 288,
      "target": 34962
    },
    {
      "buffer": 0,
      "byteOffset": 576,
      "byteLength": 192,
      "target": 34962
    },
    {
      "buffer": 0,
      "byteOffset": 768,
      "byteLength": 144,
      "target": 34963
    },
    {
      "buffer": 0,
      "byteOffset": 912,
      "byteLength": 288,
      "target": 34962
    },
    {
      "buffer": 0,
      "byteOffset": 1200,
      "byteLength": 288,
      "target": 34962
    },
    {
      "buffer": 0,
      "byteOffset": 1488,
      "byteLength": 192,
      "target": 34962
    },
    {
      "buffer": 0,
      "byteOffset": 1680,
      "byteLength": 144,
      "target": 34963
    },
    {
      "buffer": 0,
      "byteOffset": 1824,
      "byteLength": 288,
      "target": 34962
    },
    {
      "buffer": 0,
      "byteOffset": 2112,
      "byteLength": 288,
      "target": 34962
    },
    {
      "buffer": 0,
      "byteOffset": 2400,
      "byteLength": 192,
      "target": 34962
    },
    {
      "buffer": 0,
      "byteOffset": 2592,
      "byteLength": 144,
      "target": 34963
    }
  ],
  "accessors": [
    {
      "bufferView": 0,
      "byteOffset": 0,
      "type": "VEC3",
      "componentType": 5126,
      "count": 24,
      "max": [
        0.5,
        0.5,
        0.5
      ],
      "min": [
        -0.5,
        -0.5,
        -0.5
      ],
      "normalized": false
    },
    {
      "bufferView": 1,
      "byteOffset": 0,
      "type": "VEC3",
      "componentType": 5126,
      "count": 24,
      "normalized": false
    },
    {
      "bufferView": 2,
      "byteOffset": 0,
      "type": "VEC2",
      "componentType": 5126,
      "count": 24,
      "normalized": false
    },
    {
      "bufferView": 3,
      "byteOffset": 0,
      "type": "SCALAR",
      "componentType": 5125,
      "count": 36,
      "normalized": false
    },
    {
      "bufferView": 4,
      "byteOffset": 0,
      "type": "VEC3",
      "componentType": 5126,
      "count": 24,
      "max": [
        0.5,
        0.5,
        0.5
      ],
      "min": [
        -0.5,
        -0.5,
        -0.5
      ],
      "normalized": false
    },
    {
      "bufferView": 5,
      "byteOffset": 0,
      "type": "VEC3",
      "componentType": 5126,
      "count": 24,
      "normalized": false
    },
    {
      "bufferView": 6,
      "byteOffset": 0,
      "type": "VEC2",
      "componentType": 5126,
      "count": 24,
      "normalized": false
    },
    {
      "bufferView": 7,
      "byteOffset": 0,
      "type": "SCALAR",
      "componentType": 5125,
      "count": 36,
      "normalized": false
    },
    {
      "bufferView": 8,
      "byteOffset": 0,
      "type": "VEC3",
      "componentType": 5126,
      "count": 24,
      "max": [
        0.5,
        0.5,
        0.5
      ],
      "min": [
        -0.5,
        -0.5,
        -0.5
      ],
      "normalized": false
    },
    {
      "bufferView": 9,
      "byteOffset": 0,
      "type": "VEC3",
      "componentType": 5126,
      "count": 24,
      "normalized": false
    },
    {
      "bufferView": 10,
      "byteOffset": 0,
      "type": "VEC2",
      "componentType": 5126,
      "count": 24,
      "normalized": false
    },
    {
      "bufferView": 11,
      "byteOffset": 0,
      "type": "SCALAR",
      "componentType": 5125,
      "count": 36,
      "normalized": false
    }
  ],
  "materials": [
    {
      "name": "Default-Material",
      "pbrMetallicRoughness": {
        "baseColorFactor": [
          1,
          1,
          1,
          1
        ],
        "metallicFactor": 0,
        "roughnessFactor": 0.5
      },
      "alphaMode": "OPAQUE",
      "doubleSided": false
    }
  ],
  "meshes": [
    {
      "name": "Cube",
      "primitives": [
        {
          "mode": 4,
          "indices": 3,
          "attributes": {
            "POSITION": 0,
            "NORMAL": 1,
            "TEXCOORD_0": 2
          },
          "material": 0
        }
      ]
    },
    {
      "name": "Cube",
      "primitives": [
        {
          "mode": 4,
          "indices": 7,
          "attributes": {
            "POSITION": 4,
            "NORMAL": 5,
            "TEXCOORD_0": 6
          },
          "material": 0
        }
      ]
    },
    {
      "name": "Cube",
      "primitives": [
        {
          "mode": 4,
          "indices": 11,
          "attributes": {
            "POSITION": 8,
            "NORMAL": 9,
            "TEXCOORD_0": 10
          },
          "material": 0
        }
      ]
    }
  ],
  "nodes": [
    {
      "name": "CubeA",
      "translation": [
        0,
        0,
        0
      ],
      "rotation": [
        0,
        0,
        0,
        1
      ],
      "scale": [
        1,
        1,
        1
      ],
      "mesh": 0,
      "extras": {}
    },
    {
      "name": "CubeB",
      "translation": [
        -3,
        0,
        0
      ],
      "rotation": [
        0,
        0,
        0,
        1
      ],
      "scale": [
        1,
        1,
        1
      ],
      "mesh": 1,
      "extensions": {
        "VRMC_node_constraint": {
          "specVersion": "1.0",
          "constraint": {
            "roll": {
              "source": 0,
              "rollAxis": "Y",
              "weight": 1.0
            }
          }
        }
      },
      "extras": {}
    },
    {
      "name": "CubeC",
      "translation": [
        3,
        0,
        0
      ],
      "rotation": [
        0,
        0,
        0,
        1
      ],
      "scale": [
        1,
        1,
        1
      ],
      "mesh": 2,
      "extensions": {
        "VRMC_node_constraint": {
          "specVersion": "1.0",
          "constraint": {
            "rotation": {
              "source": 0,
              "weight": 0.5
            }
          }
        }
      },
      "extras": {}
    }
  ],
  "scene": 0,
  "scenes": [
    {
      "nodes": [
        0,
        1,
        2
      ]
    }
  ],
  "extensionsUsed": [
    "KHR_materials_unlit",
    "VRMC_node_constraint"
  ],
  "extensions": {},
  "extras": {}
}
